<svg width="49" height="49" viewBox="0 0 49 49" fill="none" xmlns="http://www.w3.org/2000/svg">
<path d="M19.573 14.75H17.673C15.483 14.75 14.333 15.9 14.333 18.08V19.98C14.333 22.16 15.483 23.31 17.663 23.31H19.563C21.743 23.31 22.893 22.16 22.893 19.98V18.08C22.903 15.9 21.753 14.75 19.573 14.75Z" fill="#80AD01"/>
<path d="M31.0034 14.75H29.1034C26.9234 14.75 25.7734 15.9 25.7734 18.08V19.98C25.7734 22.16 26.9234 23.31 29.1034 23.31H31.0034C33.1834 23.31 34.3334 22.16 34.3334 19.98V18.08C34.3334 15.9 33.1834 14.75 31.0034 14.75Z" fill="#B4CD6D"/>
<path d="M31.0034 26.1802H29.1034C26.9234 26.1802 25.7734 27.3302 25.7734 29.5102V31.4102C25.7734 33.5902 26.9234 34.7402 29.1034 34.7402H31.0034C33.1834 34.7402 34.3334 33.5902 34.3334 31.4102V29.5102C34.3334 27.3302 33.1834 26.1802 31.0034 26.1802Z" fill="#80AD01"/>
<path d="M19.573 26.1802H17.673C15.483 26.1802 14.333 27.3302 14.333 29.5102V31.4102C14.333 33.6002 15.483 34.7502 17.663 34.7502H19.563C21.743 34.7502 22.893 33.6002 22.893 31.4202V29.5202C22.903 27.3302 21.753 26.1802 19.573 26.1802Z" fill="#B4CD6D"/>
</svg>
