<svg width="49" height="49" viewBox="0 0 49 49" fill="none" xmlns="http://www.w3.org/2000/svg">
<path d="M17.333 22.75H19.333C21.333 22.75 22.333 21.75 22.333 19.75V17.75C22.333 15.75 21.333 14.75 19.333 14.75H17.333C15.333 14.75 14.333 15.75 14.333 17.75V19.75C14.333 21.75 15.333 22.75 17.333 22.75Z" stroke="#6B6B6B" stroke-miterlimit="10" stroke-linecap="round" stroke-linejoin="round"/>
<path d="M31.333 14.75H29.333C27.333 14.75 26.333 15.75 26.333 17.75V19.75C26.333 21.75 27.333 22.75 29.333 22.75H31.333C33.333 22.75 34.333 21.75 34.333 19.75V17.75" stroke="#6B6B6B" stroke-miterlimit="10" stroke-linecap="round" stroke-linejoin="round"/>
<path d="M29.333 34.75H31.333C33.333 34.75 34.333 33.75 34.333 31.75V29.75C34.333 27.75 33.333 26.75 31.333 26.75H29.333C27.333 26.75 26.333 27.75 26.333 29.75V31.75C26.333 33.75 27.333 34.75 29.333 34.75Z" stroke="#6B6B6B" stroke-miterlimit="10" stroke-linecap="round" stroke-linejoin="round"/>
<path d="M17.333 34.75H19.333C21.333 34.75 22.333 33.75 22.333 31.75V29.75C22.333 27.75 21.333 26.75 19.333 26.75H17.333C15.333 26.75 14.333 27.75 14.333 29.75V31.75" stroke="#6B6B6B" stroke-miterlimit="10" stroke-linecap="round" stroke-linejoin="round"/>
</svg>
