<svg width="49" height="48" viewBox="0 0 49 48" fill="none" xmlns="http://www.w3.org/2000/svg">
<path d="M32.5402 18.8202L26.7802 14.7902C25.2102 13.6902 22.8002 13.7502 21.2902 14.9202L16.2802 18.8302C15.2802 19.6102 14.4902 21.2102 14.4902 22.4702V29.3702C14.4902 31.9202 16.5602 34.0002 19.1102 34.0002H29.8902C32.4402 34.0002 34.5102 31.9302 34.5102 29.3802V22.6002C34.5102 21.2502 33.6402 19.5902 32.5402 18.8202Z" fill="#80AD01"/>
<path d="M24.5 30.75C24.09 30.75 23.75 30.41 23.75 30V27C23.75 26.59 24.09 26.25 24.5 26.25C24.91 26.25 25.25 26.59 25.25 27V30C25.25 30.41 24.91 30.75 24.5 30.75Z" fill="#CCE094"/>
</svg>
