<svg width="49" height="49" viewBox="0 0 41 42" fill="none" xmlns="http://www.w3.org/2000/svg">
<path fill-rule="evenodd" clip-rule="evenodd" d="M0.5 18.5H40.5V20.5C40.5 28.0424 40.5 31.8138 38.1568 34.1568C37.548 34.7656 36.8428 35.2164 36 35.5498V40.5C36 41.3284 35.3284 42 34.5 42C33.6716 42 33 41.3284 33 40.5V36.2426C30.8602 36.5 28.1128 36.5 24.5 36.5H16.5C12.8873 36.5 10.1398 36.5 8 36.2426V40.5C8 41.3284 7.32842 42 6.5 42C5.67158 42 5 41.3284 5 40.5V35.5498C4.15722 35.2164 3.45198 34.7656 2.84314 34.1568C0.5 31.8138 0.5 28.0424 0.5 20.5V18.5ZM13 27.5C13 26.6716 13.6716 26 14.5 26H26.5C27.3284 26 28 26.6716 28 27.5C28 28.3284 27.3284 29 26.5 29H14.5C13.6716 29 13 28.3284 13 27.5Z" fill="#626754"/>
<path d="M2.84314 2.84314C0.5 5.1863 0.5 8.95752 0.5 16.5V18.5H40.5V16.5C40.5 8.95752 40.5 5.1863 38.1568 2.84314C35.8138 0.5 32.0424 0.5 24.5 0.5H16.5C8.95752 0.5 5.1863 0.5 2.84314 2.84314Z" fill="#626754" fill-opacity="0.56"/>
<path d="M14.5 8C13.6716 8 13 8.67158 13 9.5C13 10.3284 13.6716 11 14.5 11H26.5C27.3284 11 28 10.3284 28 9.5C28 8.67158 27.3284 8 26.5 8H14.5Z" fill="#626754"/>
</svg>
