<svg width="15" height="14" viewBox="0 0 15 14" fill="none" xmlns="http://www.w3.org/2000/svg">
<path d="M14.2156 0.299929C14.3221 0.212565 14.3987 0.0928679 14.5 0C14.4438 0.405179 14.3412 0.802103 14.2503 1.20006C13.9234 2.53942 13.5078 3.85505 12.9903 5.12562C12.5361 6.23659 12.0007 7.31283 11.3549 8.31305C10.666 9.37071 9.84648 10.3486 8.85655 11.0998C8.01079 11.7481 7.0345 12.2118 6.00594 12.412C5.58224 12.4945 5.1514 12.5361 4.72056 12.5375C4.39329 12.5361 4.08096 12.4192 3.77934 12.2971C3.53876 12.8553 3.33973 13.4342 3.11409 14C2.98681 13.9979 2.87156 13.9309 2.75208 13.8927C2.42903 13.7647 2.09786 13.6602 1.77871 13.5216C2.17546 12.4801 2.55532 11.43 3.01506 10.417C3.53486 9.26959 4.15953 8.16584 4.95562 7.20861C5.65367 6.36661 6.47898 5.64293 7.39326 5.07918C8.50591 4.39024 9.73349 3.92521 10.9883 3.63045C10.4036 3.62288 9.82408 3.73226 9.25136 3.84714C8.05786 4.0996 6.89846 4.5464 5.8423 5.18959C4.96114 5.73167 4.15628 6.41786 3.48908 7.23509C3.03746 7.7837 2.65143 8.39147 2.32805 9.03329C2.09072 9.49488 1.90566 9.98329 1.72741 10.4727C1.67124 10.4297 1.62027 10.3795 1.57676 10.3228C1.18911 9.83471 0.85924 9.28644 0.66054 8.68177C0.501776 8.19404 0.450478 7.66229 0.553399 7.15564C0.735215 6.18741 1.19268 5.29244 1.7891 4.54055C2.4524 3.70887 3.31636 3.06189 4.27479 2.66978C5.09588 2.32548 5.97899 2.21335 6.84359 2.05444C7.66144 1.92305 8.47799 1.77825 9.29843 1.66577C9.99323 1.5619 10.6877 1.45355 11.3783 1.32044C12.1 1.17598 12.8237 1.01157 13.5081 0.72093C13.7575 0.609488 14.0029 0.479474 14.2156 0.299929Z" fill="white"/>
</svg>
