<svg width="49" height="49" viewBox="0 0 49 49" fill="none" xmlns="http://www.w3.org/2000/svg">
<path d="M20.417 35.25C19.4505 35.25 18.667 34.4665 18.667 33.5C18.667 32.5335 19.4505 31.75 20.417 31.75C21.3835 31.75 22.167 32.5335 22.167 33.5C22.167 34.4665 21.3835 35.25 20.417 35.25Z" fill="#80AD01"/>
<path d="M28.417 35.25C27.4505 35.25 26.667 34.4665 26.667 33.5C26.667 32.5335 27.4505 31.75 28.417 31.75C29.3835 31.75 30.167 32.5335 30.167 33.5C30.167 34.4665 29.3835 35.25 28.417 35.25Z" fill="#80AD01"/>
<path d="M31.827 16.69L32.027 19.14C32.067 19.61 31.697 20 31.227 20H15.917C15.497 20 15.147 19.68 15.117 19.26C14.987 17.49 16.337 16.05 18.107 16.05H30.377C30.477 15.61 30.677 15.19 30.987 14.84C31.477 14.31 32.177 14 32.897 14H34.667C35.077 14 35.417 14.34 35.417 14.75C35.417 15.16 35.077 15.5 34.667 15.5H32.927C32.617 15.5 32.327 15.63 32.117 15.85C31.907 16.08 31.807 16.38 31.827 16.69Z" fill="#B4CD6D"/>
<path d="M16.1569 21.5H31.4969C31.9169 21.5 32.2569 21.82 32.2969 22.23L32.6569 26.58C32.7969 28.28 31.4569 29.75 29.7469 29.75H18.6269C17.1269 29.75 15.8069 28.52 15.6969 27.02L15.3669 22.35C15.3269 21.89 15.6869 21.5 16.1569 21.5Z" fill="#80AD01"/>
</svg>
