<svg width="49" height="48" viewBox="0 0 49 48" fill="none" xmlns="http://www.w3.org/2000/svg">
<path d="M31.7503 25.9699C31.8903 27.5999 30.6003 28.9999 28.9603 28.9999H18.3103C16.8703 28.9999 15.6103 27.8199 15.5003 26.3899L14.9603 18.8899C14.8403 17.2299 16.1003 15.8799 17.7703 15.8799H30.6803" stroke="#6B6B6B" stroke-miterlimit="10" stroke-linecap="round" stroke-linejoin="round"/>
<path d="M34.5 14H32.76C31.68 14 30.83 14.93 30.92 16L31.42 22.05" stroke="#6B6B6B" stroke-miterlimit="10" stroke-linecap="round" stroke-linejoin="round"/>
<path d="M20.25 34C19.5596 34 19 33.4404 19 32.75C19 32.0596 19.5596 31.5 20.25 31.5C20.9404 31.5 21.5 32.0596 21.5 32.75C21.5 33.4404 20.9404 34 20.25 34Z" stroke="#6B6B6B" stroke-miterlimit="10" stroke-linecap="round" stroke-linejoin="round"/>
<path d="M28.25 34C27.5596 34 27 33.4404 27 32.75C27 32.0596 27.5596 31.5 28.25 31.5C28.9404 31.5 29.5 32.0596 29.5 32.75C29.5 33.4404 28.9404 34 28.25 34Z" stroke="#6B6B6B" stroke-miterlimit="10" stroke-linecap="round" stroke-linejoin="round"/>
<path d="M27.5 20H15.5" stroke="#6B6B6B" stroke-miterlimit="10" stroke-linecap="round" stroke-linejoin="round"/>
</svg>
