<svg width="22" height="22" viewBox="0 0 22 22" fill="none" xmlns="http://www.w3.org/2000/svg">
<path d="M18.6124 13.0675C18.6465 13.4726 18.596 13.8804 18.4641 14.2651C18.3323 14.6496 18.122 15.0027 17.8466 15.3018C17.5712 15.6008 17.2367 15.8395 16.8643 16.0025C16.4918 16.1656 16.0895 16.2495 15.6829 16.249H4.50041C2.98841 16.249 1.66541 15.01 1.54991 13.5085L0.982912 5.63345C0.856912 3.89045 2.17991 2.47295 3.93341 2.47295H17.4889M21.4999 0.5H19.6729C18.5389 0.5 17.6464 1.4765 17.7409 2.6L18.2659 8.9525M14.1499 6.8H1.54991M6.53741 21.5C6.18934 21.5 5.85544 21.3617 5.60933 21.1156C5.36319 20.8695 5.22491 20.5356 5.22491 20.1875C5.22491 19.8394 5.36319 19.5055 5.60933 19.2594C5.85544 19.0133 6.18934 18.875 6.53741 18.875C6.88549 18.875 7.21939 19.0133 7.46552 19.2594C7.71166 19.5055 7.84991 19.8394 7.84991 20.1875C7.84991 20.5356 7.71166 20.8695 7.46552 21.1156C7.21939 21.3617 6.88549 21.5 6.53741 21.5ZM14.9374 21.5C14.5893 21.5 14.2554 21.3617 14.0093 21.1156C13.7632 20.8695 13.6249 20.5356 13.6249 20.1875C13.6249 19.8394 13.7632 19.5055 14.0093 19.2594C14.2554 19.0133 14.5893 18.875 14.9374 18.875C15.2855 18.875 15.6194 19.0133 15.8655 19.2594C16.1117 19.5055 16.2499 19.8394 16.2499 20.1875C16.2499 20.5356 16.1117 20.8695 15.8655 21.1156C15.6194 21.3617 15.2855 21.5 14.9374 21.5Z" stroke="#6B6B6B" stroke-miterlimit="10" stroke-linecap="round" stroke-linejoin="round"/>
</svg>
